{"title":"Quincy 2018 1080p WEB-DL DD 5.1 x264 [MW]","magnet":"magnet:?xt=urn:btih:ea9e4eae58175b57dfc31047cdec775c37d61023&dn=Quincy+2018+1080p+WEB-DL+DD+5.1+x264+%5BMW%5D&tr=udp%3A%2F%2Ftracker.leechers-paradise.org%3A6969&tr=udp%3A%2F%2Fzer0day.ch%3A1337&tr=udp%3A%2F%2Fopen.demonii.com%3A1337&tr=udp%3A%2F%2Ftracker.coppersurfer.tk%3A6969&tr=udp%3A%2F%2Fexodus.desync.com%3A6969","uploader":"MFreaky","categoryP":"video","categoryS":"hd___movies","size":"2158749890","seeders":"5","leechers":"8","description":" <a href=\"https://pichub.site/image/Eg6sR\" rel=\"nofollow\" target=\"_NEW\">https://pichub.site/image/Eg6sR</a> <a href=\"\nhttps://pichub.site/image/EgXYs\" rel=\"nofollow\" target=\"_NEW\">\nhttps://pichub.site/image/EgXYs</a> <a href=\"\nhttps://pichub.site/image/EgnzB\" rel=\"nofollow\" target=\"_NEW\">\nhttps://pichub.site/image/EgnzB</a> <a href=\"\nhttps://pichub.site/image/Egs5Y\" rel=\"nofollow\" target=\"_NEW\">\nhttps://pichub.site/image/Egs5Y</a> <a href=\"\nhttps://pichub.site/image/Eg1wt\" rel=\"nofollow\" target=\"_NEW\">\nhttps://pichub.site/image/Eg1wt</a>\r\n\r\nIMDB <a href=\"\nhttps://www.imdb.com/title/tt7440432/\" rel=\"nofollow\" target=\"_NEW\">\nhttps://www.imdb.com/title/tt7440432/</a>\r\n\r\nVideo\r\nFormat                                   : AVC\r\nFormat/Info                              : Advanced Video Codec\r\nFormat profile                           : High@L4.1\r\nFormat settings                          : CABAC / 4 Ref Frames\r\nFormat settings, CABAC                   : Yes\r\nFormat settings, RefFrames               : 4 frames\r\nCodec ID                                 : V_MPEG4/ISO/AVC\r\nDuration                                 : 2 h 4 min\r\nBit rate                                 : 2 000 kb/s\r\nWidth                                    : 1 920 pixels\r\nHeight                                   : 1 080 pixels\r\nDisplay aspect ratio                     : 16:9\r\nFrame rate mode                          : Constant\r\nFrame rate                               : 23.976 (24000/1001) FPS\r\nColor space                              : YUV\r\nChroma subsampling                       : 4:2:0\r\nBit depth                                : 8 bits\r\nScan type                                : Progressive\r\nBits/(Pixel*Frame)                       : 0.040\r\nStream size                              : 1.68 GiB (83%)\r\nWriting library                          : x264 core 155 r2901 7d0ff22\r\n\r\nAudio\r\nFormat                                   : AC-3\r\nFormat/Info                              : Audio Coding 3\r\nCodec ID                                 : A_AC3\r\nDuration                                 : 2 h 4 min\r\nBit rate mode                            : Constant\r\nBit rate                                 : 384 kb/s\r\nChannel(s)                               : 6 channels\r\nChannel positions                        : Front: L C R, Side: L R, LFE\r\nSampling rate                            : 48.0 kHz\r\nFrame rate                               : 31.250 FPS (1536 SPF)\r\nBit depth                                : 16 bits\r\nCompression mode                         : Lossy\r\nStream size                              : 341 MiB (17%)\r\nLanguage                                 : English","last_updated":"2018-09-22T12:10:07.328Z","parsed":{"xt":"urn:btih:ea9e4eae58175b57dfc31047cdec775c37d61023","dn":"Quincy 2018 1080p WEB-DL DD 5.1 x264 [MW]","tr":["udp://exodus.desync.com:6969","udp://open.demonii.com:1337","udp://tracker.coppersurfer.tk:6969","udp://tracker.leechers-paradise.org:6969","udp://zer0day.ch:1337"],"infoHash":"ea9e4eae58175b57dfc31047cdec775c37d61023","infoHashBuffer":{"type":"Buffer","data":[234,158,78,174,88,23,91,87,223,195,16,71,205,236,119,92,55,214,16,35]},"name":"Quincy 2018 1080p WEB-DL DD 5.1 x264 [MW]","announce":["udp://exodus.desync.com:6969","udp://open.demonii.com:1337","udp://tracker.coppersurfer.tk:6969","udp://tracker.leechers-paradise.org:6969","udp://zer0day.ch:1337"],"urlList":[]}}